<svg width="14" height="154" viewBox="0 0 14 154" fill="none" xmlns="http://www.w3.org/2000/svg">
<path d="M14 8C14 4 10 0 7 0C4 0 0 4 0 8V140H14V8Z" fill="#F4F9FF"/>
<path d="M14 26V19H0V26H14Z" fill="#67A8E0"/>
<path d="M14 149C13 146 12 141 10 140H4C2 141 1 146 0 149V154H14V149Z" fill="#BCCBDD"/>
<path d="M0 150H14V154H0V150Z" fill="#67A8E0"/>
<path d="M4 149C4 146 5.5 140 8 140H4C2 141 1 146 0 149V154H4V149Z" fill="#002F66" fill-opacity="0.3"/>
<path d="M4 8C4 4 5 1 7 0C4 0 0 4 0 8V140H4V8Z" fill="#0074FF" fill-opacity="0.3"/>
</svg>
