<svg width="1719" height="118" viewBox="0 0 1719 118" fill="none" xmlns="http://www.w3.org/2000/svg">
<path d="M1677.5 117.077H1003C1003 78.5772 1041.5 50.0772 1067 50.0772H1217C1217 27.5772 1241 3.07715 1277.5 3.07715H1524.5C1550.5 3.07715 1586.5 21 1589 50.0772H1618C1645.5 50.0772 1675.15 74.4852 1677.5 117.077Z" fill="#74AFB4"/>
<path d="M1718.5 117.077C1718.5 98 1681.5 76.0771 1654 76.0771H1182C1159.5 76.0771 1129 105.077 1127.5 117.077H1718.5Z" fill="#85C9CF"/>
<path d="M543.5 79.08H415C407.5 42.5771 361 0.0800552 319 0.0800552H171.5C147.5 0.0800552 114 24 108 54H64C33 54 0.5 79.08 0.5 117.08H608C599 97.5798 579 80.0798 543.5 79.08Z" fill="#74AFB4"/>
</svg>
