<svg width="28" height="233" viewBox="0 0 28 233" fill="none" xmlns="http://www.w3.org/2000/svg">
<path d="M28 212V0H0V212H28Z" fill="#D2A27E"/>
<path d="M28 14V0H0V14H28Z" fill="#CE824F"/>
<path d="M26 225.5C24.2857 221 22.5714 213.5 19.1429 212H8.85714C5.42857 213.5 3.71429 221 2 225.5V233H26V225.5Z" fill="#BCCBDD"/>
<path d="M2 227H26V233H2V227Z" fill="#67A8E0"/>
<path d="M9 225.5C9 221 11.625 212 16 212H9C5.5 213.5 3.75 221 2 225.5V233H9V225.5Z" fill="#002F66" fill-opacity="0.3"/>
<path d="M10 212V0H0V212H10Z" fill="#C25700" fill-opacity="0.3"/>
</svg>
