<svg width="30" height="40" viewBox="0 0 30 40" fill="none" xmlns="http://www.w3.org/2000/svg">
<path d="M26 7L24.8289 2.90112C24.3383 1.18391 22.7687 0 20.9828 0H7.01721C5.23128 0 3.66174 1.18391 3.17111 2.90112L2 7L0.335899 9.49615C0.116876 9.82469 0 10.2107 0 10.6056V29.3944C0 29.7893 0.116876 30.1753 0.335899 30.5038L2 33L3.17111 37.0989C3.66174 38.8161 5.23128 40 7.01721 40H20.9828C22.7687 40 24.3383 38.8161 24.8289 37.0989L26 33L27.6641 30.5038C27.8831 30.1753 28 29.7893 28 29.3944V10.6056C28 10.2107 27.8831 9.82469 27.6641 9.49615L26 7Z" fill="#809EB1"/>
<path d="M26 7L24.8289 2.90112C24.3383 1.18391 22.7687 0 20.9828 0H7.01721C5.23128 0 3.66174 1.18391 3.17111 2.90112L2 7L5.2 4.6C5.71929 4.21053 6.35089 4 7 4H21C21.6491 4 22.2807 4.21053 22.8 4.6L26 7Z" fill="#425A70"/>
<path d="M2 33L3.17111 37.0989C3.66174 38.8161 5.23128 40 7.01721 40H20.9828C22.7687 40 24.3383 38.8161 24.8289 37.0989L26 33L22.8 35.4C22.2807 35.7895 21.6491 36 21 36H7C6.35089 36 5.71929 35.7895 5.2 35.4L2 33Z" fill="#425A70"/>
<path d="M22 33C16.4772 33 12 27.1797 12 20C12 12.8203 16.4772 7 22 7V33Z" fill="#425A70"/>
<path d="M30 20C30 27.1797 26.4183 33 22 33C17.5817 33 14 27.1797 14 20C14 12.8203 17.5817 7 22 7C26.4183 7 30 12.8203 30 20Z" fill="#A7C0CE"/>
<path d="M27 20C27 25.5228 24.3137 30 21 30C17.6863 30 15 25.5228 15 20C15 14.4772 17.6863 10 21 10C24.3137 10 27 14.4772 27 20Z" fill="#90A9B6"/>
<path d="M7 14.5C7 15.3284 6.32843 16 5.5 16C4.67157 16 4 15.3284 4 14.5C4 13.6716 4.67157 13 5.5 13C6.32843 13 7 13.6716 7 14.5Z" fill="#324456"/>
<path d="M7 24.5C7 25.3284 6.32843 26 5.5 26C4.67157 26 4 25.3284 4 24.5C4 23.6716 4.67157 23 5.5 23C6.32843 23 7 23.6716 7 24.5Z" fill="#324456"/>
<path d="M6.99989 19.5C6.99989 20.3284 6.32832 21 5.49989 21C4.67146 21 3.99989 20.3284 3.99989 19.5C3.99989 18.6716 4.67146 18 5.49989 18C6.32832 18 6.99989 18.6716 6.99989 19.5Z" fill="#324456"/>
<path d="M2 33L3.17111 37.0989C3.66174 38.8161 5.23128 40 7.01721 40H13L11.4661 33.3923C11.406 33.1334 11.2948 32.889 11.1392 32.6735L9.58698 30.5243C9.34082 30.1834 9.20833 29.7737 9.20833 29.3533V10.6467C9.20833 10.2263 9.34082 9.81656 9.58698 9.47573L11.1392 7.32646C11.2948 7.11098 11.406 6.86665 11.4661 6.60774L13 0H7.01721C5.23128 0 3.66174 1.18391 3.17111 2.90112L2 7L0.335899 9.49615C0.116876 9.82469 0 10.2107 0 10.6056V29.3944C0 29.7893 0.116876 30.1753 0.335899 30.5038L2 33Z" fill="#00132A" fill-opacity="0.3"/>
</svg>
