<svg width="42" height="227" viewBox="0 0 42 227" fill="none" xmlns="http://www.w3.org/2000/svg">
<path d="M42 45C42 41 33 0 21 0C9 0 0 41 0 45V155L7 166V206H35V166L42 155V45Z" fill="#F4F9FF"/>
<path d="M42 65V60H0V65H42Z" fill="#B7C3D5"/>
<path d="M42 97V92H0V97H42Z" fill="#B7C3D5"/>
<path d="M42 154V149H0V154H42Z" fill="#B7C3D5"/>
<path d="M35 171V166H7V171H35Z" fill="#B7C3D5"/>
<path d="M35 206V201H7V206H35Z" fill="#B7C3D5"/>
<path d="M10.5 45.5C10.5 32.5 15.5 1.5 21 0C9 0 0 41 0 45V155L7 166V206H17V166L10.5 155.5V45.5Z" fill="#0074FF" fill-opacity="0.3"/>
<path d="M33 219.5C31.2857 215 29.5714 207.5 26.1429 206H15.8571C12.4286 207.5 10.7143 215 9 219.5V227H33V219.5Z" fill="#BCCBDD"/>
<path d="M9 221H33V227H9V221Z" fill="#67A8E0"/>
<path d="M16 219.5C16 215 18.625 206 23 206H16C12.5 207.5 10.75 215 9 219.5V227H16V219.5Z" fill="#002F66" fill-opacity="0.3"/>
</svg>
