<svg width="107" height="635" viewBox="0 0 107 635" fill="none" xmlns="http://www.w3.org/2000/svg">
<path d="M107 558.088H36.0888L0 635H89.2722L107 558.088Z" fill="black" fill-opacity="0.1"/>
<path d="M89.2722 531.391V261.882H53.8166V531.391H89.2722Z" fill="#D2A27E"/>
<path d="M89.2722 279.68V261.882H53.8166V279.68H89.2722Z" fill="#CE824F"/>
<path d="M86.7396 548.553C84.5689 542.833 82.3981 533.298 78.0566 531.391H65.0321C60.6906 533.298 58.5199 542.833 56.3491 548.553V558.088H86.7396V548.553Z" fill="#BCCBDD"/>
<path d="M56.3491 550.46H86.7396V558.088H56.3491V550.46Z" fill="#67A8E0"/>
<path d="M65.213 548.554C65.213 542.833 68.537 531.391 74.0769 531.391H65.213C60.7811 533.298 58.5651 542.833 56.3491 548.553V558.088L65.213 558.088V548.554Z" fill="#002F66" fill-opacity="0.3"/>
<path d="M66.4793 531.391V261.882H53.8166V531.391H66.4793Z" fill="#C25700" fill-opacity="0.3"/>
<path d="M53.8166 372.482C53.8166 367.397 48.7515 362.312 44.9527 362.312C41.1538 362.312 36.0888 367.397 36.0888 372.482V540.29H53.8166V372.482Z" fill="#F4F9FF"/>
<path d="M53.8166 395.365V386.466H36.0888V395.365H53.8166Z" fill="#67A8E0"/>
<path d="M53.8166 551.732C52.5503 547.918 51.284 541.561 48.7515 540.29H41.1538C38.6213 541.561 37.355 547.918 36.0888 551.732V558.088L53.8166 558.088V551.732Z" fill="#BCCBDD"/>
<path d="M36.0888 553.003H53.8166V558.088L36.0888 558.088V553.003Z" fill="#67A8E0"/>
<path d="M41.1538 551.732C41.1538 547.918 43.0533 540.29 46.2189 540.29H41.1538C38.6213 541.561 37.355 547.918 36.0888 551.732V558.088L41.1538 558.088V551.732Z" fill="#002F66" fill-opacity="0.3"/>
<path d="M41.1538 372.482C41.1538 367.397 42.4201 363.584 44.9527 362.312C41.1538 362.312 36.0888 367.397 36.0888 372.482V540.29H41.1538V372.482Z" fill="#0074FF" fill-opacity="0.3"/>
<path d="M107 372.482C107 367.397 101.935 362.312 98.1361 362.312C94.3373 362.312 89.2722 367.397 89.2722 372.482V540.29H107V372.482Z" fill="#F4F9FF"/>
<path d="M107 395.365V386.466H89.2722V395.365H107Z" fill="#67A8E0"/>
<path d="M107 551.732C105.734 547.918 104.467 541.562 101.935 540.29H94.3373C91.8047 541.562 90.5385 547.918 89.2722 551.732V558.088H107V551.732Z" fill="#BCCBDD"/>
<path d="M89.2722 553.003H107V558.088H89.2722V553.003Z" fill="#67A8E0"/>
<path d="M94.3373 551.732C94.3373 547.918 96.2367 540.29 99.4024 540.29H94.3373C91.8047 541.562 90.5385 547.918 89.2722 551.732V558.088H94.3373V551.732Z" fill="#002F66" fill-opacity="0.3"/>
<path d="M94.3373 372.482C94.3373 367.397 95.6036 363.584 98.1361 362.312C94.3373 362.312 89.2722 367.397 89.2722 372.482V540.29H94.3373V372.482Z" fill="#0074FF" fill-opacity="0.3"/>
<path d="M98.1361 57.2072C98.1361 52.1221 86.7396 0 71.5444 0C56.3491 0 44.9527 52.1221 44.9527 57.2072V197.047L53.8166 211.031V261.882H89.2722V211.031L98.1361 197.047V57.2072Z" fill="#F4F9FF"/>
<path d="M98.1361 82.6326V76.2763H44.9527V82.6326H98.1361Z" fill="#B7C3D5"/>
<path d="M98.1361 123.313V116.957H44.9527V123.313H98.1361Z" fill="#B7C3D5"/>
<path d="M98.1361 195.776V189.419H44.9527V195.776H98.1361Z" fill="#B7C3D5"/>
<path d="M89.2722 217.387V211.031H53.8166V217.387H89.2722Z" fill="#B7C3D5"/>
<path d="M89.2722 261.882V255.526H53.8166V261.882H89.2722Z" fill="#B7C3D5"/>
<path d="M58.2485 57.8428C58.2485 41.3163 64.5799 1.90691 71.5444 0C56.3491 0 44.9527 52.1221 44.9527 57.2072V197.047L53.8166 211.031V261.882H66.4793V211.031L58.2485 197.683V57.8428Z" fill="#0074FF" fill-opacity="0.3"/>
</svg>
