<svg width="56" height="439" viewBox="0 0 56 439" fill="none" xmlns="http://www.w3.org/2000/svg">
<path d="M42 418V206H14V418H42Z" fill="#D2A27E"/>
<path d="M42 220V206H14V220H42Z" fill="#CE824F"/>
<path d="M40 431.5C38.2857 427 36.5714 419.5 33.1429 418H22.8571C19.4286 419.5 17.7143 427 16 431.5V439H40V431.5Z" fill="#BCCBDD"/>
<path d="M16 433H40V439H16V433Z" fill="#67A8E0"/>
<path d="M23 431.5C23 427 25.625 418 30 418H23C19.5 419.5 17.75 427 16 431.5V439L23 439V431.5Z" fill="#002F66" fill-opacity="0.3"/>
<path d="M24 418V206H14V418H24Z" fill="#C25700" fill-opacity="0.3"/>
<path d="M14 293C14 289 10 285 7 285C4 285 0 289 0 293V425H14V293Z" fill="#F4F9FF"/>
<path d="M14 311V304H0V311H14Z" fill="#67A8E0"/>
<path d="M14 434C13 431 12 426 10 425H4C2 426 1 431 0 434V439H14V434Z" fill="#BCCBDD"/>
<path d="M0 435H14V439H0V435Z" fill="#67A8E0"/>
<path d="M4 434C4 431 5.5 425 8 425H4C2 426 1 431 0 434V439H4V434Z" fill="#002F66" fill-opacity="0.3"/>
<path d="M4 293C4 289 5 286 7 285C4 285 0 289 0 293V425H4V293Z" fill="#0074FF" fill-opacity="0.3"/>
<path d="M56 293C56 289 52 285 49 285C46 285 42 289 42 293V425H56V293Z" fill="#F4F9FF"/>
<path d="M56 311V304H42V311H56Z" fill="#67A8E0"/>
<path d="M56 434C55 431 54 426 52 425H46C44 426 43 431 42 434V439H56V434Z" fill="#BCCBDD"/>
<path d="M42 435H56V439H42V435Z" fill="#67A8E0"/>
<path d="M46 434C46 431 47.5 425 50 425H46C44 426 43 431 42 434V439H46V434Z" fill="#002F66" fill-opacity="0.3"/>
<path d="M46 293C46 289 47 286 49 285C46 285 42 289 42 293V425H46V293Z" fill="#0074FF" fill-opacity="0.3"/>
<path d="M49 45C49 41 40 0 28 0C16 0 7 41 7 45V155L14 166V206H42V166L49 155V45Z" fill="#F4F9FF"/>
<path d="M49 65V60H7V65H49Z" fill="#B7C3D5"/>
<path d="M49 97V92H7V97H49Z" fill="#B7C3D5"/>
<path d="M49 154V149H7V154H49Z" fill="#B7C3D5"/>
<path d="M42 171V166H14V171H42Z" fill="#B7C3D5"/>
<path d="M42 206V201H14V206H42Z" fill="#B7C3D5"/>
<path d="M17.5 45.5C17.5 32.5 22.5 1.5 28 0C16 0 7 41 7 45V155L14 166V206H24V166L17.5 155.5V45.5Z" fill="#0074FF" fill-opacity="0.3"/>
</svg>
