<svg width="28" height="105" viewBox="0 0 28 105" fill="none" xmlns="http://www.w3.org/2000/svg">
<path d="M27.037 12.8765L22 7H6L0.962974 12.8765C0.341569 13.6015 0 14.5249 0 15.4797V84H28V15.4797C28 14.5249 27.6584 13.6015 27.037 12.8765Z" fill="#F4F9FF"/>
<path d="M28 49V44H0V49H28Z" fill="#B7C3D5"/>
<path d="M28 21V16H0V21H28Z" fill="#B7C3D5"/>
<path d="M22 7L21 0H7L6 7H22Z" fill="#B7C3D5"/>
<path d="M28 84V79H0V84H28Z" fill="#B7C3D5"/>
<path d="M10 14.5602C10 14.1886 10.0518 13.8187 10.1539 13.4613L12 7L13 0H7L6 7L0.962974 12.8765C0.341569 13.6015 0 14.5249 0 15.4797V44V84H10V14.5602Z" fill="#0074FF" fill-opacity="0.3"/>
<path d="M26 97.5C24.2857 93 22.5714 85.5 19.1429 84H8.85714C5.42857 85.5 3.71429 93 2 97.5V105H26V97.5Z" fill="#BCCBDD"/>
<path d="M2 99H26V105H2V99Z" fill="#67A8E0"/>
<path d="M9 97.5C9 93.0001 11.625 84 16 84H9C5.5 85.5 3.75 93 2 97.5V105H9V97.5Z" fill="#002F66" fill-opacity="0.3"/>
</svg>
