<svg width="154" height="40" viewBox="0 0 154 40" fill="none" xmlns="http://www.w3.org/2000/svg">
<path d="M112 34C112 34.5523 111.552 35 111 35H94C93.4477 35 93 34.5523 93 34V7C93 6.44772 93.4477 6 94 6L111 6C111.552 6 112 6.44772 112 7V34Z" fill="#5F7F93"/>
<path d="M111 33C111 33.5523 110.552 34 110 34H104C103.448 34 103 33.5523 103 33V29C103 28.4477 103.448 28 104 28L110 28C110.552 28 111 28.4477 111 29V33Z" fill="#425A70"/>
<path d="M102 33C102 33.5523 101.552 34 101 34H95C94.4477 34 94 33.5523 94 33V29C94 28.4477 94.4477 28 95 28H101C101.552 28 102 28.4477 102 29V33Z" fill="#425A70"/>
<path d="M102 12C102 12.5523 101.552 13 101 13H95C94.4477 13 94 12.5523 94 12V8C94 7.44772 94.4477 7 95 7L101 7C101.552 7 102 7.44772 102 8V12Z" fill="#425A70"/>
<path d="M102 19C102 19.5523 101.552 20 101 20H95C94.4477 20 94 19.5523 94 19V15C94 14.4477 94.4477 14 95 14L101 14C101.552 14 102 14.4477 102 15V19Z" fill="#425A70"/>
<path d="M102 26C102 26.5523 101.552 27 101 27H95C94.4477 27 94 26.5523 94 26V22C94 21.4477 94.4477 21 95 21H101C101.552 21 102 21.4477 102 22V26Z" fill="#425A70"/>
<path d="M111 12C111 12.5523 110.552 13 110 13L104 13C103.448 13 103 12.5523 103 12V8C103 7.44772 103.448 7 104 7L110 7C110.552 7 111 7.44772 111 8V12Z" fill="#425A70"/>
<path d="M111 19C111 19.5523 110.552 20 110 20H104C103.448 20 103 19.5523 103 19V15C103 14.4477 103.448 14 104 14H110C110.552 14 111 14.4477 111 15V19Z" fill="#425A70"/>
<path d="M111 26C111 26.5523 110.552 27 110 27L104 27C103.448 27 103 26.5523 103 26V22C103 21.4477 103.448 21 104 21H110C110.552 21 111 21.4477 111 22V26Z" fill="#425A70"/>
<path d="M93 29C93 29 92 28 91 29V11C92 12 93 11 93 11V29Z" fill="#425A70"/>
<path d="M154 34C154 34.5523 153.552 35 153 35H136C135.448 35 135 34.5523 135 34V7C135 6.44772 135.448 6 136 6L153 6C153.552 6 154 6.44772 154 7V34Z" fill="#5F7F93"/>
<path d="M153 33C153 33.5523 152.552 34 152 34H146C145.448 34 145 33.5523 145 33V29C145 28.4477 145.448 28 146 28L152 28C152.552 28 153 28.4477 153 29V33Z" fill="#425A70"/>
<path d="M144 33C144 33.5523 143.552 34 143 34H137C136.448 34 136 33.5523 136 33V29C136 28.4477 136.448 28 137 28H143C143.552 28 144 28.4477 144 29V33Z" fill="#425A70"/>
<path d="M144 12C144 12.5523 143.552 13 143 13H137C136.448 13 136 12.5523 136 12V8C136 7.44772 136.448 7 137 7L143 7C143.552 7 144 7.44772 144 8V12Z" fill="#425A70"/>
<path d="M144 19C144 19.5523 143.552 20 143 20H137C136.448 20 136 19.5523 136 19V15C136 14.4477 136.448 14 137 14L143 14C143.552 14 144 14.4477 144 15V19Z" fill="#425A70"/>
<path d="M144 26C144 26.5523 143.552 27 143 27H137C136.448 27 136 26.5523 136 26V22C136 21.4477 136.448 21 137 21H143C143.552 21 144 21.4477 144 22V26Z" fill="#425A70"/>
<path d="M153 12C153 12.5523 152.552 13 152 13L146 13C145.448 13 145 12.5523 145 12V8C145 7.44772 145.448 7 146 7L152 7C152.552 7 153 7.44772 153 8V12Z" fill="#425A70"/>
<path d="M153 19C153 19.5523 152.552 20 152 20H146C145.448 20 145 19.5523 145 19V15C145 14.4477 145.448 14 146 14H152C152.552 14 153 14.4477 153 15V19Z" fill="#425A70"/>
<path d="M153 26C153 26.5523 152.552 27 152 27L146 27C145.448 27 145 26.5523 145 26V22C145 21.4477 145.448 21 146 21H152C152.552 21 153 21.4477 153 22V26Z" fill="#425A70"/>
<path d="M135 29C135 29 134 28 133 29V11C134 12 135 11 135 11V29Z" fill="#425A70"/>
<path d="M133 34C133 34.5523 132.552 35 132 35H115C114.448 35 114 34.5523 114 34V7C114 6.44772 114.448 6 115 6L132 6C132.552 6 133 6.44772 133 7V34Z" fill="#5F7F93"/>
<path d="M132 33C132 33.5523 131.552 34 131 34H125C124.448 34 124 33.5523 124 33V29C124 28.4477 124.448 28 125 28L131 28C131.552 28 132 28.4477 132 29V33Z" fill="#425A70"/>
<path d="M123 33C123 33.5523 122.552 34 122 34H116C115.448 34 115 33.5523 115 33V29C115 28.4477 115.448 28 116 28H122C122.552 28 123 28.4477 123 29V33Z" fill="#425A70"/>
<path d="M123 12C123 12.5523 122.552 13 122 13H116C115.448 13 115 12.5523 115 12V8C115 7.44772 115.448 7 116 7L122 7C122.552 7 123 7.44772 123 8V12Z" fill="#425A70"/>
<path d="M123 19C123 19.5523 122.552 20 122 20H116C115.448 20 115 19.5523 115 19V15C115 14.4477 115.448 14 116 14L122 14C122.552 14 123 14.4477 123 15V19Z" fill="#425A70"/>
<path d="M123 26C123 26.5523 122.552 27 122 27H116C115.448 27 115 26.5523 115 26V22C115 21.4477 115.448 21 116 21H122C122.552 21 123 21.4477 123 22V26Z" fill="#425A70"/>
<path d="M132 12C132 12.5523 131.552 13 131 13L125 13C124.448 13 124 12.5523 124 12V8C124 7.44772 124.448 7 125 7L131 7C131.552 7 132 7.44772 132 8V12Z" fill="#425A70"/>
<path d="M132 19C132 19.5523 131.552 20 131 20H125C124.448 20 124 19.5523 124 19V15C124 14.4477 124.448 14 125 14H131C131.552 14 132 14.4477 132 15V19Z" fill="#425A70"/>
<path d="M132 26C132 26.5523 131.552 27 131 27L125 27C124.448 27 124 26.5523 124 26V22C124 21.4477 124.448 21 125 21H131C131.552 21 132 21.4477 132 22V26Z" fill="#425A70"/>
<path d="M114 29C114 29 113 28 112 29V11C113 12 114 11 114 11V29Z" fill="#425A70"/>
<path d="M42 7C42 6.44772 42.4477 6 43 6H60C60.5523 6 61 6.44772 61 7V34C61 34.5523 60.5523 35 60 35H43C42.4477 35 42 34.5523 42 34V7Z" fill="#5F7F93"/>
<path d="M43 8C43 7.44772 43.4477 7 44 7H50C50.5523 7 51 7.44772 51 8V12C51 12.5523 50.5523 13 50 13H44C43.4477 13 43 12.5523 43 12V8Z" fill="#425A70"/>
<path d="M52 8C52 7.44772 52.4477 7 53 7H59C59.5523 7 60 7.44772 60 8V12C60 12.5523 59.5523 13 59 13H53C52.4477 13 52 12.5523 52 12V8Z" fill="#425A70"/>
<path d="M52 29C52 28.4477 52.4477 28 53 28H59C59.5523 28 60 28.4477 60 29V33C60 33.5523 59.5523 34 59 34H53C52.4477 34 52 33.5523 52 33V29Z" fill="#425A70"/>
<path d="M52 22C52 21.4477 52.4477 21 53 21H59C59.5523 21 60 21.4477 60 22V26C60 26.5523 59.5523 27 59 27H53C52.4477 27 52 26.5523 52 26V22Z" fill="#425A70"/>
<path d="M52 15C52 14.4477 52.4477 14 53 14H59C59.5523 14 60 14.4477 60 15V19C60 19.5523 59.5523 20 59 20H53C52.4477 20 52 19.5523 52 19V15Z" fill="#425A70"/>
<path d="M43 29C43 28.4477 43.4477 28 44 28H50C50.5523 28 51 28.4477 51 29V33C51 33.5523 50.5523 34 50 34H44C43.4477 34 43 33.5523 43 33V29Z" fill="#425A70"/>
<path d="M43 22C43 21.4477 43.4477 21 44 21H50C50.5523 21 51 21.4477 51 22V26C51 26.5523 50.5523 27 50 27H44C43.4477 27 43 26.5523 43 26V22Z" fill="#425A70"/>
<path d="M43 15C43 14.4477 43.4477 14 44 14H50C50.5523 14 51 14.4477 51 15V19C51 19.5523 50.5523 20 50 20H44C43.4477 20 43 19.5523 43 19V15Z" fill="#425A70"/>
<path d="M61 12C61 12 62 13 63 12V30C62 29 61 30 61 30V12Z" fill="#425A70"/>
<path d="M0 7C0 6.44772 0.447715 6 1 6H18C18.5523 6 19 6.44772 19 7V34C19 34.5523 18.5523 35 18 35H1C0.447715 35 0 34.5523 0 34V7Z" fill="#5F7F93"/>
<path d="M1 8C1 7.44772 1.44772 7 2 7H8C8.55228 7 9 7.44772 9 8V12C9 12.5523 8.55228 13 8 13H2C1.44772 13 1 12.5523 1 12V8Z" fill="#425A70"/>
<path d="M10 8C10 7.44772 10.4477 7 11 7H17C17.5523 7 18 7.44772 18 8V12C18 12.5523 17.5523 13 17 13H11C10.4477 13 10 12.5523 10 12V8Z" fill="#425A70"/>
<path d="M10 29C10 28.4477 10.4477 28 11 28H17C17.5523 28 18 28.4477 18 29V33C18 33.5523 17.5523 34 17 34H11C10.4477 34 10 33.5523 10 33V29Z" fill="#425A70"/>
<path d="M10 22C10 21.4477 10.4477 21 11 21H17C17.5523 21 18 21.4477 18 22V26C18 26.5523 17.5523 27 17 27H11C10.4477 27 10 26.5523 10 26V22Z" fill="#425A70"/>
<path d="M10 15C10 14.4477 10.4477 14 11 14H17C17.5523 14 18 14.4477 18 15V19C18 19.5523 17.5523 20 17 20H11C10.4477 20 10 19.5523 10 19V15Z" fill="#425A70"/>
<path d="M1 29C1 28.4477 1.44772 28 2 28H8C8.55228 28 9 28.4477 9 29V33C9 33.5523 8.55228 34 8 34H2C1.44772 34 1 33.5523 1 33V29Z" fill="#425A70"/>
<path d="M1 22C1 21.4477 1.44772 21 2 21H8C8.55228 21 9 21.4477 9 22V26C9 26.5523 8.55228 27 8 27H2C1.44772 27 1 26.5523 1 26V22Z" fill="#425A70"/>
<path d="M1 15C1 14.4477 1.44772 14 2 14H8C8.55228 14 9 14.4477 9 15V19C9 19.5523 8.55228 20 8 20H2C1.44772 20 1 19.5523 1 19V15Z" fill="#425A70"/>
<path d="M19 12C19 12 20 13 21 12V30C20 29 19 30 19 30V12Z" fill="#425A70"/>
<path d="M21 7C21 6.44772 21.4477 6 22 6H39C39.5523 6 40 6.44772 40 7V34C40 34.5523 39.5523 35 39 35H22C21.4477 35 21 34.5523 21 34V7Z" fill="#5F7F93"/>
<path d="M22 8C22 7.44772 22.4477 7 23 7H29C29.5523 7 30 7.44772 30 8V12C30 12.5523 29.5523 13 29 13H23C22.4477 13 22 12.5523 22 12V8Z" fill="#425A70"/>
<path d="M31 8C31 7.44772 31.4477 7 32 7H38C38.5523 7 39 7.44772 39 8V12C39 12.5523 38.5523 13 38 13H32C31.4477 13 31 12.5523 31 12V8Z" fill="#425A70"/>
<path d="M31 29C31 28.4477 31.4477 28 32 28H38C38.5523 28 39 28.4477 39 29V33C39 33.5523 38.5523 34 38 34H32C31.4477 34 31 33.5523 31 33V29Z" fill="#425A70"/>
<path d="M31 22C31 21.4477 31.4477 21 32 21H38C38.5523 21 39 21.4477 39 22V26C39 26.5523 38.5523 27 38 27H32C31.4477 27 31 26.5523 31 26V22Z" fill="#425A70"/>
<path d="M31 15C31 14.4477 31.4477 14 32 14H38C38.5523 14 39 14.4477 39 15V19C39 19.5523 38.5523 20 38 20H32C31.4477 20 31 19.5523 31 19V15Z" fill="#425A70"/>
<path d="M22 29C22 28.4477 22.4477 28 23 28H29C29.5523 28 30 28.4477 30 29V33C30 33.5523 29.5523 34 29 34H23C22.4477 34 22 33.5523 22 33V29Z" fill="#425A70"/>
<path d="M22 22C22 21.4477 22.4477 21 23 21H29C29.5523 21 30 21.4477 30 22V26C30 26.5523 29.5523 27 29 27H23C22.4477 27 22 26.5523 22 26V22Z" fill="#425A70"/>
<path d="M22 15C22 14.4477 22.4477 14 23 14H29C29.5523 14 30 14.4477 30 15V19C30 19.5523 29.5523 20 29 20H23C22.4477 20 22 19.5523 22 19V15Z" fill="#425A70"/>
<path d="M40 12C40 12 41 13 42 12V30C41 29 40 30 40 30V12Z" fill="#425A70"/>
<path d="M89 7L87.8289 2.90112C87.3383 1.18391 85.7687 0 83.9828 0H70.0172C68.2313 0 66.6617 1.18391 66.1711 2.90112L65 7L63.3359 9.49615C63.1169 9.82469 63 10.2107 63 10.6056V29.3944C63 29.7893 63.1169 30.1753 63.3359 30.5038L65 33L66.1711 37.0989C66.6617 38.8161 68.2313 40 70.0172 40H83.9828C85.7687 40 87.3383 38.8161 87.8289 37.0989L89 33L90.6641 30.5038C90.8831 30.1753 91 29.7893 91 29.3944V10.6056C91 10.2107 90.8831 9.82469 90.6641 9.49615L89 7Z" fill="#809EB1"/>
<path d="M89 7L87.8289 2.90112C87.3383 1.18391 85.7687 0 83.9828 0H70.0172C68.2313 0 66.6617 1.18391 66.1711 2.90112L65 7L68.2 4.6C68.7193 4.21053 69.3509 4 70 4H84C84.6491 4 85.2807 4.21053 85.8 4.6L89 7Z" fill="#425A70"/>
<path d="M65 33L66.1711 37.0989C66.6617 38.8161 68.2313 40 70.0172 40H83.9828C85.7687 40 87.3383 38.8161 87.8289 37.0989L89 33L85.8 35.4C85.2807 35.7895 84.6491 36 84 36H70C69.3509 36 68.7193 35.7895 68.2 35.4L65 33Z" fill="#425A70"/>
<path d="M85 33C79.4772 33 75 27.1797 75 20C75 12.8203 79.4772 7 85 7V33Z" fill="#425A70"/>
<path d="M93 20C93 27.1797 89.4183 33 85 33C80.5817 33 77 27.1797 77 20C77 12.8203 80.5817 7 85 7C89.4183 7 93 12.8203 93 20Z" fill="#A7C0CE"/>
<path d="M90 20C90 25.5228 87.3137 30 84 30C80.6863 30 78 25.5228 78 20C78 14.4772 80.6863 10 84 10C87.3137 10 90 14.4772 90 20Z" fill="#90A9B6"/>
<path d="M70 14.5C70 15.3284 69.3284 16 68.5 16C67.6716 16 67 15.3284 67 14.5C67 13.6716 67.6716 13 68.5 13C69.3284 13 70 13.6716 70 14.5Z" fill="#324456"/>
<path d="M70 24.5C70 25.3284 69.3284 26 68.5 26C67.6716 26 67 25.3284 67 24.5C67 23.6716 67.6716 23 68.5 23C69.3284 23 70 23.6716 70 24.5Z" fill="#324456"/>
<path d="M69.9999 19.5C69.9999 20.3284 69.3283 21 68.4999 21C67.6715 21 66.9999 20.3284 66.9999 19.5C66.9999 18.6716 67.6715 18 68.4999 18C69.3283 18 69.9999 18.6716 69.9999 19.5Z" fill="#324456"/>
<path d="M65 33L66.1711 37.0989C66.6617 38.8161 68.2313 40 70.0172 40H76L74.4661 33.3923C74.406 33.1334 74.2948 32.889 74.1392 32.6735L72.587 30.5243C72.3408 30.1834 72.2083 29.7737 72.2083 29.3533V10.6467C72.2083 10.2263 72.3408 9.81656 72.587 9.47573L74.1392 7.32646C74.2948 7.11098 74.406 6.86665 74.4661 6.60774L76 0H70.0172C68.2313 0 66.6617 1.18391 66.1711 2.90112L65 7L63.3359 9.49615C63.1169 9.82469 63 10.2107 63 10.6056V29.3944C63 29.7893 63.1169 30.1753 63.3359 30.5038L65 33Z" fill="#00132A" fill-opacity="0.3"/>
</svg>
