<svg width="21" height="29" viewBox="0 0 21 29" fill="none" xmlns="http://www.w3.org/2000/svg">
<path d="M21 28C21 28.5523 20.5523 29 20 29L3 29C2.44771 29 2 28.5523 2 28L2 1C2 0.447716 2.44772 -4.82823e-08 3 0L20 1.48619e-06C20.5523 1.53447e-06 21 0.447717 21 1L21 28Z" fill="#5F7F93"/>
<path d="M20 27C20 27.5523 19.5523 28 19 28L13 28C12.4477 28 12 27.5523 12 27L12 23C12 22.4477 12.4477 22 13 22L19 22C19.5523 22 20 22.4477 20 23V27Z" fill="#425A70"/>
<path d="M11 27C11 27.5523 10.5523 28 10 28H4C3.44771 28 3 27.5523 3 27L3 23C3 22.4477 3.44772 22 4 22H10C10.5523 22 11 22.4477 11 23V27Z" fill="#425A70"/>
<path d="M11 6C11 6.55229 10.5523 7 10 7L4 7C3.44772 7 3 6.55228 3 6L3 2C3 1.44772 3.44772 1 4 1L10 1C10.5523 1 11 1.44772 11 2V6Z" fill="#425A70"/>
<path d="M11 13C11 13.5523 10.5523 14 10 14L4 14C3.44772 14 3 13.5523 3 13L3 9C3 8.44772 3.44772 8 4 8L10 8C10.5523 8 11 8.44772 11 9V13Z" fill="#425A70"/>
<path d="M11 20C11 20.5523 10.5523 21 10 21H4C3.44772 21 3 20.5523 3 20L3 16C3 15.4477 3.44772 15 4 15L10 15C10.5523 15 11 15.4477 11 16L11 20Z" fill="#425A70"/>
<path d="M20 6C20 6.55229 19.5523 7 19 7L13 7C12.4477 7 12 6.55229 12 6L12 2C12 1.44772 12.4477 1 13 1L19 1C19.5523 1 20 1.44772 20 2V6Z" fill="#425A70"/>
<path d="M20 13C20 13.5523 19.5523 14 19 14H13C12.4477 14 12 13.5523 12 13V9C12 8.44772 12.4477 8 13 8H19C19.5523 8 20 8.44772 20 9L20 13Z" fill="#425A70"/>
<path d="M20 20C20 20.5523 19.5523 21 19 21L13 21C12.4477 21 12 20.5523 12 20V16C12 15.4477 12.4477 15 13 15H19C19.5523 15 20 15.4477 20 16V20Z" fill="#425A70"/>
<path d="M2 23C2 23 1 22 0 23L1.57361e-06 5C1 6 2 5 2 5L2 23Z" fill="#425A70"/>
</svg>
