<svg width="21" height="29" viewBox="0 0 21 29" fill="none" xmlns="http://www.w3.org/2000/svg">
<path d="M0 1C0 0.447716 0.447715 0 1 0H18C18.5523 0 19 0.447715 19 1V28C19 28.5523 18.5523 29 18 29H1C0.447715 29 0 28.5523 0 28V1Z" fill="#5F7F93"/>
<path d="M1 2C1 1.44772 1.44772 1 2 1H8C8.55228 1 9 1.44772 9 2V6C9 6.55228 8.55228 7 8 7H2C1.44772 7 1 6.55228 1 6V2Z" fill="#425A70"/>
<path d="M10 2C10 1.44772 10.4477 1 11 1H17C17.5523 1 18 1.44772 18 2V6C18 6.55228 17.5523 7 17 7H11C10.4477 7 10 6.55228 10 6V2Z" fill="#425A70"/>
<path d="M10 23C10 22.4477 10.4477 22 11 22H17C17.5523 22 18 22.4477 18 23V27C18 27.5523 17.5523 28 17 28H11C10.4477 28 10 27.5523 10 27V23Z" fill="#425A70"/>
<path d="M10 16C10 15.4477 10.4477 15 11 15H17C17.5523 15 18 15.4477 18 16V20C18 20.5523 17.5523 21 17 21H11C10.4477 21 10 20.5523 10 20V16Z" fill="#425A70"/>
<path d="M10 9C10 8.44772 10.4477 8 11 8H17C17.5523 8 18 8.44772 18 9V13C18 13.5523 17.5523 14 17 14H11C10.4477 14 10 13.5523 10 13V9Z" fill="#425A70"/>
<path d="M1 23C1 22.4477 1.44772 22 2 22H8C8.55228 22 9 22.4477 9 23V27C9 27.5523 8.55228 28 8 28H2C1.44772 28 1 27.5523 1 27V23Z" fill="#425A70"/>
<path d="M1 16C1 15.4477 1.44772 15 2 15H8C8.55228 15 9 15.4477 9 16V20C9 20.5523 8.55228 21 8 21H2C1.44772 21 1 20.5523 1 20V16Z" fill="#425A70"/>
<path d="M1 9C1 8.44772 1.44772 8 2 8H8C8.55228 8 9 8.44772 9 9V13C9 13.5523 8.55228 14 8 14H2C1.44772 14 1 13.5523 1 13V9Z" fill="#425A70"/>
<path d="M19 6C19 6 20 7 21 6V24C20 23 19 24 19 24V6Z" fill="#425A70"/>
</svg>
