<svg width="96" height="130" viewBox="0 0 96 130" fill="none" xmlns="http://www.w3.org/2000/svg">
<path d="M71.883 35.3229V35.3532C71.883 35.3481 71.883 35.3431 71.883 35.338C71.883 35.333 71.883 35.328 71.883 35.3229Z" fill="#DAD1CE"/>
<path d="M71.8817 35.6401L0 35.6401C0.162242 55.3513 16.1914 71.2801 35.9409 71.2802C55.6904 71.2802 71.7195 55.3513 71.8817 35.6401Z" fill="#DAD1CE"/>
<path d="M0.00147478 35.6401H71.8832C71.7209 15.9289 55.6918 0 35.9423 0C16.1928 0 0.163719 15.9289 0.00147478 35.6401Z" fill="#EDE3E0"/>
<path d="M4.83255 45.9093V79.133C4.83255 79.7371 5.13459 80.0392 5.73866 80.0392H65.5415C66.2895 80.0196 66.4467 79.8271 66.4476 79.133V45.9093C66.4476 43.493 62.2191 43.493 62.2191 45.9093V75.8107H48.9296V45.9093C48.9296 43.493 44.3991 43.493 44.3991 45.9093V75.8107H26.8811V45.9093C26.8811 43.493 22.3506 43.4929 22.3506 45.9093V75.8107H9.06104V45.9093C9.06104 43.493 4.83255 43.493 4.83255 45.9093Z" fill="#EDE3E0"/>
<path d="M95.4429 129.875L67.9577 80.3412H4.83252L16.3098 129.875H95.4429Z" fill="black" fill-opacity="0.1"/>
</svg>
