<svg width="186" height="595" viewBox="0 0 186 595" fill="none" xmlns="http://www.w3.org/2000/svg">
<path d="M96.2395 595L143 517.5H80L0 595H96.2395Z" fill="black" fill-opacity="0.1"/>
<path d="M80 517.423H143.388V228.492H95.569C87.7845 228.492 80 238.074 80 246.181V517.423Z" fill="#EDE3E0"/>
<path d="M94.7413 36.1165V228.492L143.388 228.492L143.388 5.89656C143.388 2.94826 141.125 0 137.731 0H120.762C111.711 0 94.7413 17.6897 94.7413 36.1165Z" fill="#B5B1AF"/>
<path d="M143.388 50.1208V35.3794L112.07 36.1123C110.868 40.1715 112.545 42.3274 113.168 45.6984C116.758 53.0631 120.472 55.9008 128.111 55.9008C135.281 55.2803 138.229 53.8062 143.388 50.1208Z" fill="black" fill-opacity="0.3"/>
<path d="M143.389 375.931V361.106L112.844 361.843C111.672 365.925 113.308 368.094 113.916 371.484C117.417 378.89 121.039 381.744 128.489 381.744C135.482 381.12 138.357 379.637 143.389 375.931Z" fill="black" fill-opacity="0.3"/>
<path d="M172.134 33.9052C124.369 41.0382 113.147 42.6864 111.694 40.5389L110.957 28.0087C111.452 23.2459 113.026 21.7418 117.591 20.638H179.771C187.613 20.638 186.875 26.5345 183.927 30.2199C180.979 33.9052 176.936 32.8383 172.134 33.9052Z" fill="#DBD6D4"/>
<path d="M172.134 356.742C124.369 363.875 113.147 365.523 111.694 363.376L110.957 350.845C111.452 346.083 113.026 344.579 117.591 343.475H179.771C187.613 343.475 186.875 349.371 183.927 353.057C180.979 356.742 176.936 355.675 172.134 356.742Z" fill="#DBD6D4"/>
</svg>
