<svg width="36" height="48" viewBox="0 0 36 48" fill="none" xmlns="http://www.w3.org/2000/svg">
<path d="M15.13 47.969C10.637 47.6451 6.19624 46.5142 3.47275 45.0001C1.92146 44.1378 0.739585 43.078 0.275811 42.1334L-0.00012207 41.5714V23.9431V6.31477L0.218222 5.87143C1.19397 3.89041 4.30801 2.10451 8.65505 1.03295C10.1307 0.669178 12.2609 0.30692 13.9988 0.124247C15.7734 -0.0623349 20.4772 -0.0339479 22.2473 0.174302C26.9522 0.727054 30.9557 1.96453 33.4229 3.62868C34.3743 4.27044 35.3507 5.29731 35.6814 6.00414L35.965 6.61016L35.9407 24.1851L35.9164 41.7602L35.6888 42.2227C35.5636 42.477 35.1855 42.9774 34.8485 43.3346C32.7969 45.5093 28.3965 47.1181 22.6245 47.8035C21.448 47.9433 16.337 48.056 15.13 47.969ZM23.41 32.8639C23.3927 32.8188 22.7211 32.2205 21.9174 31.5341C21.1138 30.8478 20.4216 30.254 20.3793 30.2146C20.337 30.1751 20.4855 30.0356 20.7093 29.9044C20.9331 29.7732 21.3618 29.4083 21.662 29.0934C22.5401 28.1727 22.9544 27.0354 22.9544 25.5456C22.9544 24.079 22.5076 22.8957 21.6127 21.9924C20.7107 21.082 19.6751 20.6908 18.167 20.6908C15.8424 20.6908 14.0571 22.0472 13.4873 24.2462C13.2913 25.0027 13.2923 26.5311 13.4893 27.2018C14.0032 28.9513 15.4028 30.2219 17.1446 30.5203C17.734 30.6212 17.8139 30.6647 18.2157 31.1041C18.4546 31.3652 18.9447 31.8864 19.3048 32.2623L19.9597 32.9457H21.7006C22.6581 32.9457 23.4273 32.9089 23.41 32.8639ZM17.4398 27.9895C17.0207 27.771 16.8623 27.6014 16.6233 27.1156C16.4387 26.7403 16.4072 26.5269 16.4051 25.6399C16.403 24.7387 16.4317 24.544 16.6244 24.1526C16.9398 23.5122 17.3743 23.2091 18.0465 23.1605C18.9822 23.0926 19.5223 23.5518 19.8053 24.6554C20.1524 26.0084 19.7707 27.447 18.9381 27.9244C18.5012 28.1748 17.8496 28.2032 17.4398 27.9895ZM9.72346 30.5011C11.5487 30.1549 12.5848 29.0935 12.5848 27.5697C12.5848 26.2179 11.9159 25.4302 10.0671 24.6049C9.0088 24.1325 8.62546 23.8359 8.62546 23.4894C8.62546 23.2023 8.98925 22.8876 9.41275 22.8085C9.82624 22.7313 10.9229 22.9218 11.5706 23.1834L12.1134 23.4027V22.201V20.9993L11.5242 20.8686C11.1601 20.7879 10.3949 20.7394 9.52102 20.7419C8.28312 20.7419 8.04073 20.772 7.57488 20.957C6.21412 21.4972 5.5684 22.4174 5.57873 23.8017C5.5884 25.0975 6.27202 25.9059 7.9734 26.633C8.97727 27.0621 9.37964 27.3888 9.37964 27.7749C9.37964 28.5954 8.0126 28.6963 6.56523 27.9828C6.16886 27.7874 5.81273 27.6116 5.77384 27.5921C5.73496 27.5726 5.70315 28.134 5.70315 28.8395C5.70315 30.1166 5.70451 30.1227 5.93573 30.2108C6.80644 30.5418 8.73087 30.6893 9.72346 30.5011ZM30.5902 29.3164V28.2323H28.9405H27.2907V24.5087V20.785H25.8296H24.3684V25.5928V30.4005H27.4793H30.5902V29.3164ZM20.4091 10.3188C23.3127 10.1174 25.4893 9.73713 27.4046 9.09674C29.3127 8.45876 30.4398 7.6868 30.692 6.84529C30.7891 6.52102 30.7821 6.39802 30.6464 6.04248C30.0376 4.44854 26.6371 3.22391 21.4408 2.72739C19.218 2.51495 15.1756 2.58382 13.0563 2.8701C9.82242 3.30704 7.19799 4.11863 6.03107 5.04262C3.6705 6.91187 6.16681 8.96779 11.9721 9.93547C14.4892 10.3551 17.7503 10.5032 20.4091 10.3188Z" fill="#EAEAEA"/>
</svg>
